<mxfile host="Electron" modified="2023-11-28T01:24:17.041Z" agent="Mozilla/5.0 (Windows NT 10.0; Win64; x64) AppleWebKit/537.36 (KHTML, like Gecko) draw.io/21.6.1 Chrome/112.0.5615.204 Electron/24.6.1 Safari/537.36" etag="uIWtNJudmcWSssVz62cC" version="21.6.1" type="device">
  <diagram name="Page-1" id="_l2yeCVd4n4NMQlvTvqK">
    <mxGraphModel dx="1872" dy="640" grid="1" gridSize="10" guides="1" tooltips="1" connect="1" arrows="1" fold="1" page="1" pageScale="1" pageWidth="850" pageHeight="1100" math="0" shadow="0">
      <root>
        <mxCell id="0" />
        <mxCell id="1" parent="0" />
        <mxCell id="22xCsjsSkhHzYHTU6DBl-1" value="&lt;font style=&quot;font-size: 24px;&quot;&gt;Login Page&lt;/font&gt;" style="text;html=1;align=center;verticalAlign=middle;resizable=0;points=[];autosize=1;strokeColor=none;fillColor=none;" parent="1" vertex="1">
          <mxGeometry x="-10" y="53" width="140" height="40" as="geometry" />
        </mxCell>
        <mxCell id="22xCsjsSkhHzYHTU6DBl-2" value="" style="rounded=0;whiteSpace=wrap;html=1;" parent="1" vertex="1">
          <mxGeometry y="120" width="800" height="470" as="geometry" />
        </mxCell>
        <mxCell id="22xCsjsSkhHzYHTU6DBl-3" value="&lt;font style=&quot;font-size: 28px;&quot;&gt;Header (Some Title)&lt;/font&gt;" style="rounded=0;whiteSpace=wrap;html=1;" parent="1" vertex="1">
          <mxGeometry x="20" y="130" width="760" height="50" as="geometry" />
        </mxCell>
        <mxCell id="22xCsjsSkhHzYHTU6DBl-6" value="&lt;font style=&quot;font-size: 29px;&quot;&gt;Photo and some Details&lt;/font&gt;" style="whiteSpace=wrap;html=1;aspect=fixed;" parent="1" vertex="1">
          <mxGeometry x="20" y="190" width="390" height="390" as="geometry" />
        </mxCell>
        <mxCell id="22xCsjsSkhHzYHTU6DBl-8" value="" style="rounded=0;whiteSpace=wrap;html=1;" parent="1" vertex="1">
          <mxGeometry x="420" y="190" width="360" height="150" as="geometry" />
        </mxCell>
        <mxCell id="22xCsjsSkhHzYHTU6DBl-9" value="&lt;font style=&quot;font-size: 23px;&quot;&gt;Sign-up using Google&lt;/font&gt;" style="rounded=0;whiteSpace=wrap;html=1;" parent="1" vertex="1">
          <mxGeometry x="430" y="200" width="340" height="50" as="geometry" />
        </mxCell>
        <mxCell id="22xCsjsSkhHzYHTU6DBl-13" value="Recipe Master Version 1" style="text;html=1;align=center;verticalAlign=middle;resizable=0;points=[];autosize=1;strokeColor=none;fillColor=none;fontSize=23;fontStyle=1" parent="1" vertex="1">
          <mxGeometry x="280" y="3" width="290" height="40" as="geometry" />
        </mxCell>
        <mxCell id="22xCsjsSkhHzYHTU6DBl-14" value="&lt;font style=&quot;font-size: 27px;&quot;&gt;&lt;b&gt;Home Page&lt;/b&gt;&lt;/font&gt;" style="text;html=1;align=center;verticalAlign=middle;resizable=0;points=[];autosize=1;strokeColor=none;fillColor=none;" parent="1" vertex="1">
          <mxGeometry x="-35" y="638" width="170" height="50" as="geometry" />
        </mxCell>
      </root>
    </mxGraphModel>
  </diagram>
</mxfile>
